<svg xmlns="http://www.w3.org/2000/svg" viewBox="0 0 1001 629">
  <defs>
    <style>
      .cls-1 {
        fill: #0b9cd1;
      }
    </style>
  </defs>
  <path id="rain" class="cls-1" d="M725,1178c0-39.765,28.653-72,64-72s64,32.235,64,72-28.654,72-64,72S725,1217.765,725,1178Zm-359-51.5c0-33.966,31.564-61.5,70.5-61.5s70.5,27.535,70.5,61.5-31.564,61.5-70.5,61.5S366,1160.465,366,1126.5Zm719-10c0-33.966,31.564-61.5,70.5-61.5s70.5,27.535,70.5,61.5-31.564,61.5-70.5,61.5S1085,1150.466,1085,1116.5Zm141-195c0-33.966,31.564-61.5,70.5-61.5s70.5,27.534,70.5,61.5-31.564,61.5-70.5,61.5S1226,955.465,1226,921.5Zm-373,0c0-33.966,31.564-61.5,70.5-61.5S994,887.534,994,921.5,962.436,983,923.5,983,853,955.465,853,921.5Zm-379,0c0-33.966,31.564-61.5,70.5-61.5S615,887.534,615,921.5,583.436,983,544.5,983,474,955.465,474,921.5Zm520-239c0-33.965,31.564-61.5,70.5-61.5s70.5,27.535,70.5,61.5-31.564,61.5-70.5,61.5S994,716.466,994,682.5Z" transform="translate(-366 -621)"/>
</svg>
