<svg xmlns="http://www.w3.org/2000/svg" viewBox="0 0 1288 1154">
  <defs>
    <style>
      .cls-1 {
        fill: #0b9cd1;
      }

      .cls-2 {
        fill: #636dd5;
      }
    </style>
  </defs>
  <g id="rainy" transform="translate(-259 108)">
    <path id="rain" class="cls-1" d="M725,1178c0-39.765,28.653-72,64-72s64,32.235,64,72-28.654,72-64,72S725,1217.765,725,1178Zm-359-51.5c0-33.966,31.564-61.5,70.5-61.5s70.5,27.535,70.5,61.5-31.564,61.5-70.5,61.5S366,1160.465,366,1126.5Zm719-10c0-33.966,31.564-61.5,70.5-61.5s70.5,27.535,70.5,61.5-31.564,61.5-70.5,61.5S1085,1150.466,1085,1116.5Zm141-195c0-33.966,31.564-61.5,70.5-61.5s70.5,27.534,70.5,61.5-31.564,61.5-70.5,61.5S1226,955.465,1226,921.5Zm-373,0c0-33.966,31.564-61.5,70.5-61.5S994,887.534,994,921.5,962.436,983,923.5,983,853,955.465,853,921.5Zm-379,0c0-33.966,31.564-61.5,70.5-61.5S615,887.534,615,921.5,583.436,983,544.5,983,474,955.465,474,921.5Zm520-239c0-33.965,31.564-61.5,70.5-61.5s70.5,27.535,70.5,61.5-31.564,61.5-70.5,61.5S994,716.466,994,682.5Z" transform="translate(37 -204)"/>
    <path id="cloud" class="cls-2" d="M823,1402.8c-48.475,36.238-111.979,58.2-181.5,58.2C489.345,1461,366,1355.787,366,1226S489.345,991,641.5,991a323.8,323.8,0,0,1,49.334,3.757A217.867,217.867,0,0,1,689,966.5C689,844.169,790.855,745,916.5,745A231.415,231.415,0,0,1,1022.759,770.6C1062.817,683.03,1162.663,621,1279.5,621c152.154,0,275.5,105.213,275.5,235,0,46.492-15.834,89.838-43.143,126.317C1596.624,1022.388,1654,1099.476,1654,1188c0,129.787-123.346,235-275.5,235-61.089,0-117.541-16.964-163.223-45.665C1164.74,1428.5,1089.075,1461,1004.5,1461,934.979,1461,871.475,1439.036,823,1402.8Z" transform="translate(-107 -729)"/>
  </g>
</svg>
